<svg width="250" height="250" viewBox="0 0 250 250" fill="none" xmlns="http://www.w3.org/2000/svg">
<rect width="250" height="250" rx="10" fill="#FFFDFA"/>
<g clip-path="url(#clip0_55_2)">
<path d="M98.7366 178.169C99.6145 178.169 100.326 177.912 100.869 177.394C101.412 176.876 101.683 176.128 101.683 175.145V170.105C101.683 168.865 101.774 167.779 101.954 166.849C102.134 165.918 102.356 165.013 102.614 164.135L116.709 113.951L130.062 165.375C130.372 166.439 130.597 167.264 130.735 167.854L130.799 168.128C130.929 168.723 130.993 169.382 130.993 170.105V175.145C130.993 176.128 131.264 176.876 131.807 177.394C132.35 177.912 133.061 178.169 133.939 178.169H163.559C164.387 178.169 165.082 177.912 165.652 177.394C166.22 176.876 166.505 176.128 166.505 175.145V170.105C166.505 169.072 166.569 168.153 166.699 167.353C166.829 166.55 167.073 165.478 167.436 164.135L184.649 89.6203C185.477 86.1588 186.768 83.3785 188.526 81.2849C190.285 79.1914 192.301 77.6545 194.574 76.6714L196.435 75.8185C197.366 75.3532 198.025 74.9018 198.412 74.4615C198.8 74.0212 198.994 73.4397 198.994 72.7169C198.994 71.7865 198.67 71.036 198.025 70.4683C197.379 69.9006 196.41 69.6154 195.117 69.6154H170.46C169.166 69.6154 168.197 69.9006 167.552 70.4683C166.907 71.036 166.583 71.7865 166.583 72.7169C166.583 73.4397 166.749 74.0212 167.087 74.4615C167.422 74.9018 167.954 75.3006 168.676 75.6634L170.382 76.2837C173.484 77.4191 175.563 79.0502 176.624 81.1686C177.685 83.2871 177.878 85.7683 177.206 88.6123L161.878 153.65L143.942 82.1766C143.573 80.5705 143.471 79.3575 143.637 78.5489L143.709 78.2609C143.966 77.4578 144.587 76.904 145.57 76.5938L148.982 75.6634C149.81 75.3532 150.416 74.9517 150.804 74.4615C151.193 73.9647 151.399 73.3482 151.385 72.7169C151.385 71.7338 151.075 70.9723 150.455 70.4295C149.834 69.8868 148.876 69.6154 147.586 69.6154H103.622C102.381 69.6154 101.437 69.8868 100.791 70.4295C100.146 70.9723 99.8222 71.7338 99.8222 72.7169C99.8222 73.3372 99.9883 73.8662 100.326 74.3065C100.661 74.7468 101.218 75.1206 101.993 75.4308L105.25 76.5938C105.973 76.8514 106.529 77.2668 106.917 77.8345C107.305 78.4022 107.731 79.5154 108.196 81.1686L113.045 99.8388L97.6677 153.77L79.6622 82.0215C79.2551 80.6646 79.1249 79.5348 79.2745 78.6348L79.352 78.2609C79.6095 77.3055 80.2575 76.6714 81.2905 76.3612L85.3225 75.4308C86.7182 74.9655 87.416 74.0351 87.416 72.6394C87.416 71.7089 87.1058 70.9723 86.4855 70.4295C85.8652 69.8868 84.9071 69.6154 83.6166 69.6154H38.7218C37.4812 69.6154 36.5508 69.8868 35.9305 70.4295C35.3102 70.9723 35 71.7089 35 72.6394C35 73.2597 35.1551 73.8412 35.4652 74.384C35.7754 74.9268 36.2683 75.3532 36.9385 75.6634L40.3502 76.7489C41.3332 77.1089 42.0809 77.6018 42.5988 78.2222C43.1166 78.8425 43.5542 79.8255 43.9169 81.1686L65.6277 165.375C65.9378 166.566 66.1566 167.455 66.2868 168.05C66.4169 168.646 66.4806 169.33 66.4806 170.105V175.145C66.4806 176.128 66.7658 176.876 67.3335 177.394C67.9012 177.912 68.6268 178.169 69.5046 178.169H98.7366ZM195.117 180.108C198.426 180.108 201.384 179.305 203.995 177.704C206.588 176.119 208.726 173.888 210.198 171.23C211.721 168.516 212.486 165.58 212.486 162.429C212.486 159.225 211.724 156.303 210.198 153.667C208.706 151.064 206.57 148.888 203.995 147.348C201.384 145.769 198.426 144.983 195.117 144.983C191.913 144.983 189.005 145.772 186.394 147.348C183.819 148.888 181.683 151.064 180.191 153.667C178.668 156.303 177.903 159.225 177.903 162.429C177.903 165.583 178.665 168.516 180.191 171.23C181.714 173.943 183.782 176.103 186.394 177.704C189.005 179.307 191.913 180.108 195.117 180.108Z" fill="#00001A"/>
</g>
<defs>
<clipPath id="clip0_55_2">
<rect width="180" height="110.769" fill="white" transform="translate(35 69.6154)"/>
</clipPath>
</defs>
</svg>
